Coordinates
version=1
nRows=38
nColumns=12
inDegrees=yes

Units are S.I. units (second, meters, Newtons, ...)
Angles are in degrees

endheader
time	SC_y	SC_z	SC_x	AC_y	AC_z	AC_x	GH_y	GH_z	GH_yy	EL_x	PS_y
       0.0              -56.07          18.68          48.68          32.92         -14.97          3.208          121.3          6.718         -92.85          77.27          110.0
   0.04432              -56.07          18.68          48.67          32.93         -14.97          3.205          121.3          6.716         -92.81          77.26          110.0
   0.08864              -56.07          18.68          48.66          32.93         -14.96          3.202          121.3          6.713         -92.78          77.25          110.0
     0.133              -56.06          18.69          48.66          32.93         -14.96          3.198          121.3           6.71         -92.74          77.24          110.0
    0.1773              -56.06          18.69          48.65          32.94         -14.95          3.195          121.3          6.706          -92.7          77.23          110.0
    0.2216              -56.05          18.69          48.64          32.94         -14.95          3.191          121.3          6.703         -92.65          77.22          110.0
    0.2659              -56.05           18.7          48.63          32.95         -14.94          3.187          121.3          6.699         -92.61           77.2          110.0
    0.3103              -56.04           18.7          48.62          32.95         -14.94          3.182          121.3          6.695         -92.56          77.19          110.0
    0.3546              -56.03           18.7          48.61          32.95         -14.93          3.177          121.3           6.69          -92.5          77.18          110.0
    0.3989              -56.03          18.71           48.6          32.96         -14.93          3.172          121.3          6.686         -92.45          77.16          110.0
    0.4432              -56.02          18.71          48.59          32.96         -14.92          3.167          121.3          6.681         -92.38          77.14          110.0
    0.4875              -56.01          18.72          48.57          32.97         -14.92          3.161          121.3          6.675         -92.32          77.13          110.0
    0.5319               -56.0          18.72          48.56          32.98         -14.91          3.154          121.2           6.67         -92.25          77.11          110.0
    0.5762              -55.99          18.73          48.54          32.98          -14.9          3.147          121.2          6.663         -92.17          77.09          110.0
    0.6205              -55.98          18.73          48.53          32.99         -14.89           3.14          121.2          6.656         -92.09          77.07          110.0
    0.6648              -55.97          18.74          48.51           33.0         -14.88          3.132          121.2          6.649          -92.0          77.04          110.0
    0.7092              -55.96          18.74          48.49          33.01         -14.87          3.123          121.2          6.641          -91.9          77.02          110.0
    0.7535              -55.95          18.75          48.47          33.02         -14.86          3.113          121.2          6.632         -91.79          76.99          110.0
    0.7978              -55.93          18.76          48.44          33.03         -14.85          3.103          121.2          6.623         -91.67          76.96          110.0
    0.8421              -55.92          18.77          48.42          33.04         -14.84          3.091          121.2          6.612         -91.55          76.92          110.0
    0.8864               -55.9          18.78          48.39          33.05         -14.82          3.079          121.2          6.601         -91.41          76.89          110.0
    0.9308              -55.88          18.79          48.36          33.06         -14.81          3.065          121.2          6.588         -91.25          76.85          109.9
    0.9751              -55.86           18.8          48.33          33.08         -14.79          3.049          121.2          6.574         -91.08           76.8          109.9
     1.019              -55.84          18.81          48.29           33.1         -14.77          3.032          121.1          6.559         -90.89          76.75          109.9
     1.064              -55.81          18.83          48.25          33.12         -14.75          3.013          121.1          6.542         -90.68           76.7          109.9
     1.108              -55.78          18.84           48.2          33.14         -14.72          2.992          121.1          6.523         -90.45          76.64          109.9
     1.152              -55.75          18.86          48.15          33.16          -14.7          2.969          121.1          6.501         -90.19          76.57          109.9
     1.197              -55.71          18.88          48.09          33.19         -14.67          2.942          121.1          6.477         -89.89          76.49          109.9
     1.241              -55.67           18.9          48.02          33.21         -14.63          2.912          121.0           6.45         -89.56           76.4          109.9
     1.285              -55.63          18.93          47.95          33.25         -14.59          2.878          121.0          6.419         -89.18           76.3          109.9
      1.33              -55.58          18.96          47.86          33.29         -14.55          2.839          121.0          6.384         -88.74          76.19          109.8
     1.374              -55.51          18.99          47.76          33.33          -14.5          2.794          120.9          6.343         -88.25          76.06          109.8
     1.418              -55.44          19.03          47.65          33.38         -14.44          2.743          120.9          6.296         -87.67          75.91          109.8
     1.463              -55.36          19.08          47.51          33.44         -14.37          2.683          120.8          6.242         -87.01          75.73          109.8
     1.507              -55.27          19.13          47.36          33.51         -14.29          2.612          120.8          6.178         -86.23          75.53          109.7
     1.551              -55.16          19.19          47.17          33.59          -14.2           2.53          120.7          6.103         -85.31          75.28          109.7
     1.596              -55.02          19.26          46.96          33.69         -14.08          2.431          120.6          6.014         -84.22           75.0          109.6
      1.64              -54.86          19.35           46.7           33.8         -13.95          2.314          120.5          5.907         -82.91          74.65          109.6
